<svg id="Layer_1_1_" enable-background="new 0 0 64 64" height="512" viewBox="0 0 64 64" width="512" xmlns="http://www.w3.org/2000/svg"><path d="m41.93 47h11.405c.689-1.128 1.28-2.319 1.788-3.554l-7.96-3.252 7.96 3.252c1.199-2.915 1.877-6.098 1.877-9.446h-8.621c0 5.307-2.535 10.009-6.449 13z" fill="#f74f2e"/><path d="m47.104 27.657 7.946-3.337-7.946 3.337c.82 1.951 1.275 4.093 1.275 6.343h8.621c0-6.904-2.798-13.154-7.322-17.678l-6.096 6.096c1.49 1.49 2.693 3.267 3.522 5.239z" fill="#fbf5fc"/><path d="m43.582 22.418 6.096-6.096c-4.524-4.524-10.774-7.322-17.678-7.322v8.621c4.523 0 8.618 1.833 11.582 4.797zm-2.127-11.561-3.26 7.98z" fill="#f74f2e"/><path d="m25.657 18.896-3.337-7.946 3.337 7.946c1.951-.82 4.093-1.275 6.343-1.275v-8.621c-6.904 0-13.154 2.798-17.678 7.322l6.096 6.096c1.49-1.49 3.267-2.693 5.239-3.522z" fill="#fbf5fc"/><path d="m20.418 22.418-6.096-6.096c-4.524 4.524-7.322 10.774-7.322 17.678h8.621c0-4.523 1.833-8.618 4.797-11.582zm-3.581 5.388-7.98-3.26z" fill="#f74f2e"/><path d="m15.621 34h-8.621c0 3.434.71 6.696 1.968 9.672l7.93-3.33-7.93 3.33c.488 1.154 1.05 2.269 1.697 3.328h11.405c-3.914-2.991-6.449-7.693-6.449-13z" fill="#fbf5fc"/><path d="m48.379 34c0-2.249-.455-4.392-1.275-6.343l-.002.001.002-.001c-.829-1.972-2.032-3.749-3.522-5.239-2.964-2.964-7.059-4.797-11.582-4.797-2.249 0-4.392.455-6.343 1.275l.001.002-.001-.002c-1.972.829-3.749 2.032-5.239 3.522-2.964 2.964-4.797 7.059-4.797 11.582 0 5.307 2.535 10.009 6.449 13h19.86c3.914-2.991 6.449-7.693 6.449-13zm-9.943 7.79-6.3-2.8h-.124l-6.3 2.8 2.1-5.6-4.2-4.2h5.254l3.138-6h.138l3.138 6h5.254l-4.2 4.2z" fill="#fdb62f"/><path d="m3 47h58v8h-58z" fill="#656366"/><path d="m35.282 31.99-3.139-6h-.138l-3.139 6h-5.254l4.2 4.2-2.1 5.6 6.3-2.8h.124l6.3 2.8-2.1-5.6 4.2-4.2z" fill="#f74f2e"/><path d="m35.883 47h17.475c2.31-3.788 3.642-8.238 3.642-13 0-8.56-4.305-16.112-10.865-20.618 1.827 3.472 2.865 7.423 2.865 11.618 0 9.506-5.306 17.772-13.117 22z" fill="#656366" opacity=".13"/><path d="m3 52h58v3h-58z" fill="#3a393b"/><path d="m61 46h-5.952c1.935-3.705 2.952-7.819 2.952-12 0-14.337-11.664-26-26-26s-26 11.663-26 26c0 4.181 1.017 8.295 2.952 12h-5.952c-.552 0-1 .447-1 1v8c0 .553.448 1 1 1h58c.552 0 1-.447 1-1v-8c0-.553-.448-1-1-1zm-16.458 0c1.294-1.342 2.35-2.863 3.141-4.512l6.114 2.498c-.316.686-.665 1.357-1.046 2.014zm-22.104 0c-3.694-2.941-5.818-7.29-5.818-12 0-8.479 6.899-15.379 15.379-15.379s15.38 6.9 15.38 15.379c0 4.71-2.123 9.059-5.818 12zm26.913-11h6.615c-.103 2.443-.571 4.849-1.401 7.138l-6.123-2.502c.506-1.48.818-3.035.909-4.636zm-.022-2c-.096-1.671-.425-3.276-.962-4.789l6.127-2.573c.861 2.308 1.374 4.783 1.48 7.362zm-1.739-6.631c-.701-1.425-1.587-2.738-2.634-3.911l4.696-4.696c1.643 1.784 3.017 3.817 4.064 6.035zm-4.048-5.326c-1.215-1.084-2.58-1.996-4.064-2.707l2.512-6.149c2.3 1.058 4.407 2.466 6.247 4.16zm-5.912-3.468c-1.466-.504-3.018-.811-4.63-.903v-6.646c2.497.103 4.897.587 7.142 1.399zm-6.63-.903c-1.671.096-3.276.425-4.789.962l-2.573-6.128c2.308-.861 4.783-1.374 7.362-1.48zm-6.631 1.738c-1.425.7-2.738 1.587-3.911 2.633l-4.696-4.696c1.784-1.643 3.817-3.018 6.035-4.064zm-5.326 4.047c-1.084 1.215-1.996 2.58-2.707 4.063l-6.149-2.512c1.058-2.3 2.465-4.406 4.16-6.247zm-3.468 5.913c-.504 1.466-.811 3.018-.903 4.63h-6.647c.103-2.497.587-4.897 1.399-7.143zm-.926 6.63c.094 1.659.422 3.27.962 4.797l-6.09 2.558c-.88-2.355-1.38-4.835-1.486-7.355zm-4.346 9.196 6.084-2.555c.782 1.591 1.817 3.058 3.07 4.359h-8.209c-.342-.589-.656-1.191-.945-1.804zm49.697 9.804h-56v-6h56z"/><path d="m41.459 31.606c-.155-.374-.52-.617-.924-.617h-4.648l-2.858-5.464c-.173-.329-.514-.536-.886-.536h-.138c-.372 0-.713.207-.886.536l-2.858 5.464h-4.648c-.404 0-.769.243-.924.617s-.069.804.217 1.09l3.744 3.745-1.874 4.998c-.141.377-.042.802.251 1.078.293.277.726.35 1.092.187l5.955-2.647 5.956 2.647c.13.058.269.086.406.086.25 0 .497-.094.686-.272.293-.276.392-.701.251-1.078l-1.874-4.998 3.744-3.745c.286-.287.371-.717.216-1.091zm-5.83 3.876c-.277.277-.367.691-.229 1.058l1.262 3.367-4.12-1.832c-.128-.057-.266-.086-.406-.086h-.124c-.14 0-.278.029-.406.086l-4.12 1.832 1.262-3.367c.138-.366.048-.78-.229-1.058l-2.493-2.493h2.84c.372 0 .713-.207.886-.536l2.321-4.438 2.322 4.438c.173.329.514.536.886.536h2.84z"/></svg>